<svg width="320" height="39" viewBox="0 0 320 39" fill="none" xmlns="http://www.w3.org/2000/svg">
<g clip-path="url(#clip0)">
<g filter="url(#filter0_bd)">
<path fill-rule="evenodd" clip-rule="evenodd" d="M0 0H320V39H0V0Z" fill="#F9F9F9" fill-opacity="0.94"/>
</g>
<path d="M117.352 31.0645H121.771C122.376 31.0645 122.674 30.7666 122.674 30.1074V26.6943C122.674 26.1035 122.43 25.8008 121.927 25.752V24.5947C121.927 22.8516 120.774 22.0068 119.563 22.0068C118.348 22.0068 117.195 22.8516 117.195 24.5947V25.7715C116.731 25.8447 116.448 26.1426 116.448 26.6943V30.1074C116.448 30.7666 116.746 31.0645 117.352 31.0645ZM117.986 24.502C117.986 23.3691 118.709 22.7637 119.563 22.7637C120.413 22.7637 121.136 23.3691 121.136 24.502V25.7422L117.986 25.752V24.502Z" fill="#4E8B43"/>
<path d="M133.484 31.0879C134.943 31.0879 135.893 30.0098 135.893 28.1875V27.6133C135.893 25.7383 134.914 24.7246 133.49 24.7246C132.688 24.7246 131.99 25.1289 131.697 25.6855H131.645V22.5801H130.344V31H131.609V30.0566H131.662C131.996 30.6895 132.6 31.0879 133.484 31.0879ZM133.162 30.0156C132.219 30.0156 131.633 29.3594 131.633 28.123V27.6777C131.633 26.4473 132.219 25.7969 133.162 25.7969C133.994 25.7969 134.568 26.4531 134.568 27.6777V28.1348C134.568 29.3535 133.994 30.0156 133.162 30.0156ZM138.992 31.0938C139.906 31.0938 140.451 30.7129 140.721 30.2383H140.768V31H142.004V26.7812C142.004 25.3984 140.979 24.7129 139.602 24.7129C137.949 24.7129 137.246 25.5918 137.193 26.6465H138.412C138.459 26.0957 138.863 25.7266 139.572 25.7266C140.299 25.7266 140.721 26.1191 140.721 26.8281V27.4199H139.15C137.727 27.4199 136.965 28.1172 136.965 29.2188C136.965 30.373 137.791 31.0938 138.992 31.0938ZM139.385 30.1035C138.811 30.1035 138.271 29.793 138.271 29.1484C138.271 28.6328 138.617 28.2754 139.373 28.2754H140.721V28.9609C140.721 29.6348 140.141 30.1035 139.385 30.1035ZM144.02 24.8066H143.146V25.8496H144.002V29.2598C144.002 30.502 144.418 31.041 145.924 31.041C146.188 31.041 146.434 31.0176 146.539 31V30.0039C146.463 30.0156 146.357 30.0156 146.246 30.0156C145.549 30.0156 145.297 29.8281 145.297 29.1543V25.8496H146.504V24.8066H145.297V23.3008H144.02V24.8066ZM149.516 31.0938C150.43 31.0938 150.975 30.7129 151.244 30.2383H151.291V31H152.527V26.7812C152.527 25.3984 151.502 24.7129 150.125 24.7129C148.473 24.7129 147.77 25.5918 147.717 26.6465H148.936C148.982 26.0957 149.387 25.7266 150.096 25.7266C150.822 25.7266 151.244 26.1191 151.244 26.8281V27.4199H149.674C148.25 27.4199 147.488 28.1172 147.488 29.2188C147.488 30.373 148.314 31.0938 149.516 31.0938ZM149.908 30.1035C149.334 30.1035 148.795 29.793 148.795 29.1484C148.795 28.6328 149.141 28.2754 149.896 28.2754H151.244V28.9609C151.244 29.6348 150.664 30.1035 149.908 30.1035ZM154.543 24.8066H153.67V25.8496H154.525V29.2598C154.525 30.502 154.941 31.041 156.447 31.041C156.711 31.041 156.957 31.0176 157.062 31V30.0039C156.986 30.0156 156.881 30.0156 156.77 30.0156C156.072 30.0156 155.82 29.8281 155.82 29.1543V25.8496H157.027V24.8066H155.82V23.3008H154.543V24.8066ZM160.039 31.0938C160.953 31.0938 161.498 30.7129 161.768 30.2383H161.814V31H163.051V26.7812C163.051 25.3984 162.025 24.7129 160.648 24.7129C158.996 24.7129 158.293 25.5918 158.24 26.6465H159.459C159.506 26.0957 159.91 25.7266 160.619 25.7266C161.346 25.7266 161.768 26.1191 161.768 26.8281V27.4199H160.197C158.773 27.4199 158.012 28.1172 158.012 29.2188C158.012 30.373 158.838 31.0938 160.039 31.0938ZM160.432 30.1035C159.857 30.1035 159.318 29.793 159.318 29.1484C159.318 28.6328 159.664 28.2754 160.42 28.2754H161.768V28.9609C161.768 29.6348 161.188 30.1035 160.432 30.1035ZM167.809 31.0879C169.268 31.0879 170.217 30.0098 170.217 28.1875V27.6133C170.217 25.7383 169.238 24.7246 167.814 24.7246C167.012 24.7246 166.314 25.1289 166.021 25.6855H165.969V22.5801H164.668V31H165.934V30.0566H165.986C166.32 30.6895 166.924 31.0879 167.809 31.0879ZM167.486 30.0156C166.543 30.0156 165.957 29.3594 165.957 28.123V27.6777C165.957 26.4473 166.543 25.7969 167.486 25.7969C168.318 25.7969 168.893 26.4531 168.893 27.6777V28.1348C168.893 29.3535 168.318 30.0156 167.486 30.0156ZM171.559 23.2949C171.559 23.7227 171.91 24.0273 172.332 24.0273C172.754 24.0273 173.1 23.7227 173.1 23.2949C173.1 22.8672 172.754 22.5566 172.332 22.5566C171.91 22.5566 171.559 22.8672 171.559 23.2949ZM171.682 31H172.982V24.8066H171.682V31ZM175.098 24.8066H174.225V25.8496H175.08V29.2598C175.08 30.502 175.496 31.041 177.002 31.041C177.266 31.041 177.512 31.0176 177.617 31V30.0039C177.541 30.0156 177.436 30.0156 177.324 30.0156C176.627 30.0156 176.375 29.8281 176.375 29.1543V25.8496H177.582V24.8066H176.375V23.3008H175.098V24.8066ZM179.006 30.3145C179.006 30.7598 179.363 31.123 179.809 31.123C180.248 31.123 180.611 30.7598 180.611 30.3145C180.611 29.875 180.248 29.5117 179.809 29.5117C179.363 29.5117 179.006 29.875 179.006 30.3145ZM181.871 28.1523C181.871 29.8867 182.861 31.1055 184.543 31.1055C185.984 31.1055 186.881 30.3672 187.045 29.1309H185.814C185.727 29.6113 185.34 30.0273 184.619 30.0273C183.734 30.0273 183.178 29.3008 183.178 28.1523V27.625C183.178 26.4824 183.711 25.7793 184.613 25.7793C185.229 25.7793 185.674 26.2363 185.779 26.7578H187.01C186.963 25.6738 186.049 24.7012 184.543 24.7012C182.867 24.7012 181.871 25.9023 181.871 27.5957V28.1523ZM190.842 24.7012C189.061 24.7012 188.082 25.9609 188.082 27.6426V28.1406C188.082 29.8867 189.055 31.1055 190.842 31.1055C192.629 31.1055 193.59 29.8867 193.59 28.1406V27.6426C193.59 25.9551 192.623 24.7012 190.842 24.7012ZM190.842 25.7441C191.809 25.7441 192.283 26.5293 192.283 27.6602V28.1348C192.283 29.248 191.814 30.0566 190.842 30.0566C189.869 30.0566 189.395 29.2422 189.395 28.1348V27.6602C189.395 26.5352 189.875 25.7441 190.842 25.7441ZM195.002 31H196.297V27.168C196.297 26.2715 196.836 25.8262 197.51 25.8262C198.23 25.8262 198.711 26.2598 198.711 27.1797V31H199.977V27.1797C199.977 26.3594 200.428 25.8262 201.201 25.8262C201.957 25.8262 202.391 26.3184 202.391 27.1035V31H203.691V26.7754C203.691 25.5273 202.936 24.7129 201.641 24.7129C200.615 24.7129 199.971 25.2168 199.754 25.7441H199.701C199.473 25.1172 198.898 24.7129 197.943 24.7129C197.064 24.7129 196.525 25.1992 196.344 25.6387H196.279V24.8066H195.002V31Z" fill="#4E8B43"/>
<rect x="292.5" y="6" width="14" height="7.5" rx="1" fill="black"/>
<path fill-rule="evenodd" clip-rule="evenodd" d="M293.5 4C291.843 4 290.5 5.34315 290.5 7V12.5C290.5 14.1569 291.843 15.5 293.5 15.5H309.5C311.157 15.5 312.5 14.1569 312.5 12.5V7C312.5 5.34315 311.157 4 309.5 4H293.5ZM291.5 7C291.5 5.89543 292.395 5 293.5 5H309.5C310.605 5 311.5 5.89543 311.5 7V12.5C311.5 13.6046 310.605 14.5 309.5 14.5H293.5C292.395 14.5 291.5 13.6046 291.5 12.5V7ZM314.5 9C314.5 8.44772 314.052 8 313.5 8V11.5C314.052 11.5 314.5 11.0523 314.5 10.5V9Z" fill="#858789"/>
<path d="M150.012 5.83398C148.178 5.83398 146.871 7.08789 146.871 8.80469V8.81641C146.871 10.4219 148.008 11.6055 149.631 11.6055C150.791 11.6055 151.529 11.0137 151.84 10.3457H151.957C151.928 12.0566 151.371 13.4688 149.977 13.4688C149.232 13.4688 148.711 13.082 148.488 12.4902L148.471 12.4316H146.982L146.994 12.4961C147.264 13.791 148.424 14.7109 149.977 14.7109C152.104 14.7109 153.387 13.0234 153.387 10.1758V10.1641C153.387 7.11719 151.816 5.83398 150.012 5.83398ZM150.006 10.4453C149.045 10.4453 148.348 9.74219 148.348 8.76367V8.75195C148.348 7.80859 149.092 7.06445 150.023 7.06445C150.961 7.06445 151.693 7.82031 151.693 8.78711V8.79883C151.693 9.75391 150.961 10.4453 150.006 10.4453ZM156.047 9.02148C156.586 9.02148 156.979 8.61133 156.979 8.0957C156.979 7.57422 156.586 7.16992 156.047 7.16992C155.514 7.16992 155.115 7.57422 155.115 8.0957C155.115 8.61133 155.514 9.02148 156.047 9.02148ZM156.047 13.3691C156.586 13.3691 156.979 12.9648 156.979 12.4434C156.979 11.9219 156.586 11.5176 156.047 11.5176C155.514 11.5176 155.115 11.9219 155.115 12.4434C155.115 12.9648 155.514 13.3691 156.047 13.3691ZM162.809 14.5H164.256V12.877H165.393V11.6289H164.256V6.04492H162.117C160.969 7.79102 159.768 9.73633 158.672 11.6406V12.877H162.809V14.5ZM160.078 11.6641V11.5762C160.898 10.1406 161.877 8.57617 162.744 7.25195H162.832V11.6641H160.078ZM168.896 14.5H170.408V6.04492H168.902L166.693 7.59766V9.02148L168.797 7.5332H168.896V14.5Z" fill="black"/>
<path d="M39.5781 14.5H44.7109V13.5508H40.6328V6.04492H39.5781V14.5ZM46.4824 14.5H47.5371V6.99414H50.2617V6.04492H43.7578V6.99414H46.4824V14.5ZM50.8906 14.5H56.1289V13.5508H51.9453V10.6445H55.9121V9.70703H51.9453V6.99414H56.1289V6.04492H50.8906V14.5Z" fill="black"/>
<path fill-rule="evenodd" clip-rule="evenodd" d="M21 4.5C20.4477 4.5 20 4.94772 20 5.5V14C20 14.5523 20.4477 15 21 15H22C22.5523 15 23 14.5523 23 14V5.5C23 4.94772 22.5523 4.5 22 4.5H21ZM16.5 6.5C15.9477 6.5 15.5 6.94772 15.5 7.5V14C15.5 14.5523 15.9477 15 16.5 15H17.5C18.0523 15 18.5 14.5523 18.5 14V7.5C18.5 6.94772 18.0523 6.5 17.5 6.5H16.5ZM11 10C11 9.44772 11.4477 9 12 9H13C13.5523 9 14 9.44772 14 10V14C14 14.5523 13.5523 15 13 15H12C11.4477 15 11 14.5523 11 14V10ZM7.5 11C6.94772 11 6.5 11.4477 6.5 12V14C6.5 14.5523 6.94772 15 7.5 15H8.5C9.05228 15 9.5 14.5523 9.5 14V12C9.5 11.4477 9.05228 11 8.5 11H7.5Z" fill="black"/>
</g>
<defs>
<filter id="filter0_bd" x="-20" y="-20" width="360" height="79" filterUnits="userSpaceOnUse" color-interpolation-filters="sRGB">
<feFlood flood-opacity="0" result="BackgroundImageFix"/>
<feGaussianBlur in="BackgroundImage" stdDeviation="10"/>
<feComposite in2="SourceAlpha" operator="in" result="effect1_backgroundBlur"/>
<feColorMatrix in="SourceAlpha" type="matrix" values="0 0 0 0 0 0 0 0 0 0 0 0 0 0 0 0 0 0 127 0" result="hardAlpha"/>
<feOffset dy="0.5"/>
<feColorMatrix type="matrix" values="0 0 0 0 0 0 0 0 0 0 0 0 0 0 0 0 0 0 0.3 0"/>
<feBlend mode="normal" in2="effect1_backgroundBlur" result="effect2_dropShadow"/>
<feBlend mode="normal" in="SourceGraphic" in2="effect2_dropShadow" result="shape"/>
</filter>
<clipPath id="clip0">
<rect width="320" height="39" fill="white"/>
</clipPath>
</defs>
</svg>
